<?xml version="1.0" encoding="utf-8"?>
<!-- Generator: Adobe Illustrator 16.0.0, SVG Export Plug-In . SVG Version: 6.00 Build 0)  -->
<!DOCTYPE svg PUBLIC "-//W3C//DTD SVG 1.1//EN" "http://www.w3.org/Graphics/SVG/1.1/DTD/svg11.dtd">
<svg version="1.1" id="logo" xmlns="http://www.w3.org/2000/svg" xmlns:xlink="http://www.w3.org/1999/xlink" x="0px" y="0px"
	 width="595.28px" height="841.89px" viewBox="0 0 595.28 841.89" enable-background="new 0 0 595.28 841.89" xml:space="preserve">
<rect id="background" y="664.666" width="595.28" height="124"/>
<g id="white">
	<g>
		<text transform="matrix(1 0 0 1 269.9277 760.6191)" fill="#FFFFFF" font-family="'MavenProRegular'" font-size="7.6832">company slogan</text>
	</g>
	<g>
		<text transform="matrix(1 0 0 1 261.9844 751.1992)" fill="#FFFFFF" font-family="'MavenProMedium'" font-size="23.7185">anexus</text>
	</g>
	<g>
		<polygon fill="#FFFFFF" points="302.983,711.367 311.332,711.367 307.157,704.134 		"/>
		<polygon fill="#FFFFFF" points="311.911,712.376 307.738,719.606 316.085,719.606 		"/>
		<polygon fill="#FFFFFF" points="312.594,727.678 312.494,727.848 320.843,727.848 316.669,720.615 		"/>
		<polygon fill="#FFFFFF" points="288.132,720.615 283.959,727.848 292.306,727.848 		"/>
		<polygon fill="#FFFFFF" points="293.469,727.848 301.816,727.848 297.641,720.614 		"/>
		<polygon fill="#FFFFFF" points="293.468,694.887 301.816,694.887 297.641,687.654 		"/>
		<polygon fill="#FFFFFF" points="306.574,703.127 302.402,695.895 298.229,703.127 		"/>
		<polygon fill="#FFFFFF" points="287.551,719.605 287.552,719.605 283.378,712.376 279.205,719.605 		"/>
		<polygon fill="#FFFFFF" points="274.447,727.848 282.796,727.848 278.623,720.612 		"/>
		<polygon fill="#FFFFFF" points="292.306,711.367 288.133,704.135 283.959,711.367 		"/>
		<polygon fill="#FFFFFF" points="297.065,703.127 297.066,703.127 292.892,695.895 288.717,703.127 		"/>
		<polygon fill="#FFFFFF" points="297.063,703.798 288.712,703.798 292.887,711.031 		"/>
		<polygon fill="#FFFFFF" points="306.576,703.798 298.229,703.798 298.226,703.798 302.402,711.031 		"/>
		<polygon fill="#FFFFFF" points="307.155,719.273 311.329,712.041 302.979,712.041 		"/>
		<polygon fill="#FFFFFF" points="293.472,695.559 297.647,702.791 301.823,695.559 		"/>
		<polygon fill="#FFFFFF" points="283.961,712.039 288.136,719.273 292.312,712.039 		"/>
		<polygon fill="#FFFFFF" points="287.554,720.276 279.203,720.276 283.378,727.512 		"/>
		<polygon fill="#FFFFFF" points="288.712,720.276 292.887,727.512 297.063,720.276 		"/>
		<polygon fill="#FFFFFF" points="311.914,727.512 316.089,720.278 307.738,720.278 		"/>
	</g>
</g>
<g id="black">
	<g>
		<text transform="matrix(1 0 0 1 269.9277 609.127)" font-family="'MavenProRegular'" font-size="7.6832">company slogan</text>
	</g>
	<g>
		<text transform="matrix(1 0 0 1 261.9844 599.708)" font-family="'MavenProMedium'" font-size="23.7185">anexus</text>
	</g>
	<g>
		<polygon points="302.983,559.875 311.332,559.875 307.157,552.641 		"/>
		<polygon points="311.911,560.884 307.738,568.114 316.085,568.114 		"/>
		<polygon points="312.594,576.186 312.494,576.355 320.843,576.355 316.669,569.124 		"/>
		<polygon points="288.132,569.124 283.959,576.355 292.306,576.355 		"/>
		<polygon points="293.469,576.355 301.816,576.355 297.641,569.121 		"/>
		<polygon points="293.468,543.396 301.816,543.396 297.641,536.162 		"/>
		<polygon points="306.574,551.634 302.402,544.401 298.229,551.634 		"/>
		<polygon points="287.551,568.112 287.552,568.112 283.378,560.884 279.205,568.112 		"/>
		<polygon points="274.447,576.355 282.796,576.355 278.623,569.12 		"/>
		<polygon points="292.306,559.875 288.133,552.643 283.959,559.875 		"/>
		<polygon points="297.065,551.634 297.066,551.634 292.892,544.401 288.717,551.634 		"/>
		<polygon points="297.063,552.306 288.712,552.306 292.887,559.54 		"/>
		<polygon points="306.576,552.306 298.229,552.306 298.226,552.306 302.402,559.54 		"/>
		<polygon points="307.155,567.78 311.329,560.548 302.979,560.548 		"/>
		<polygon points="293.472,544.065 297.647,551.299 301.823,544.065 		"/>
		<polygon points="283.961,560.546 288.136,567.78 292.312,560.546 		"/>
		<polygon points="287.554,568.784 279.203,568.784 283.378,576.02 		"/>
		<polygon points="288.712,568.784 292.887,576.02 297.063,568.784 		"/>
		<polygon points="311.914,576.02 316.089,568.785 307.738,568.785 		"/>
	</g>
</g>
<g id="orange">
	<g>
		<text transform="matrix(1 0 0 1 269.9277 457.9697)" fill="#3E3D40" font-family="'MavenProRegular'" font-size="7.6832">company slogan</text>
	</g>
	<g>
		<text transform="matrix(1 0 0 1 261.9844 448.5508)" fill="#3E3D40" font-family="'MavenProMedium'" font-size="23.7185">anexus</text>
	</g>
	<g>
		<polygon fill="#F6A800" points="302.402,409.054 307.157,400.813 311.914,409.054 		"/>
		<polygon fill="#E75113" points="307.155,417.294 311.911,409.055 316.667,417.294 		"/>
		<polygon fill="#E75113" points="311.914,425.534 316.669,417.294 321.423,425.534 		"/>
		<polygon fill="#E53517" points="283.375,425.534 288.131,417.294 292.885,425.534 		"/>
		<polygon fill="#EE7F00" points="292.887,425.534 297.641,417.294 302.396,425.534 		"/>
		<polygon fill="#F6A800" points="292.887,392.573 297.641,384.333 302.396,392.573 		"/>
		<polygon fill="#FFDD00" points="297.646,400.813 302.402,392.573 307.155,400.813 		"/>
		<polygon fill="#FFCC00" points="278.623,417.295 283.378,409.055 288.134,417.295 		"/>
		<polygon fill="#FFCC00" points="273.867,425.534 278.623,417.292 283.377,425.534 		"/>
		<polygon fill="#EE7F00" points="283.378,409.054 288.134,400.813 292.888,409.054 		"/>
		<polygon fill="#E53517" points="288.136,400.813 292.892,392.573 297.648,400.813 		"/>
		<polygon fill="#E75113" points="297.643,400.813 292.887,409.054 288.131,400.813 		"/>
		<polygon fill="#FFCC00" points="307.157,400.813 302.402,409.054 297.646,400.813 		"/>
		<polygon fill="#EE7F00" points="311.911,409.055 307.155,417.295 302.399,409.055 		"/>
		<polygon fill="#FFCC00" points="302.402,392.573 297.647,400.813 292.892,392.573 		"/>
		<polygon fill="#F6A800" points="292.892,409.054 288.136,417.295 283.38,409.054 		"/>
		<polygon fill="#FFDD00" points="288.134,417.292 283.378,425.534 278.623,417.292 		"/>
		<polygon fill="#E75113" points="297.643,417.292 292.887,425.534 288.131,417.292 		"/>
		<polygon fill="#E53517" points="316.67,417.294 311.914,425.534 307.157,417.294 		"/>
	</g>
</g>
<g id="green">
	<g>
		<text transform="matrix(1 0 0 1 269.7578 306.4766)" fill="#3E3D40" font-family="'MavenProRegular'" font-size="7.6832">company slogan</text>
	</g>
	<g>
		<text transform="matrix(1 0 0 1 261.814 297.0581)" fill="#3E3D40" font-family="'MavenProMedium'" font-size="23.7185">anexus</text>
	</g>
	<g>
		<polygon fill="#B1C800" points="302.232,257.562 306.986,249.321 311.744,257.562 		"/>
		<polygon fill="#1FA22E" points="306.985,265.8 311.74,257.562 316.497,265.8 		"/>
		<polygon fill="#1FA22E" points="311.744,274.041 316.498,265.8 321.253,274.041 		"/>
		<polygon fill="#009435" points="283.206,274.041 287.961,265.8 292.715,274.041 		"/>
		<polygon fill="#7AB51D" points="292.717,274.041 297.471,265.8 302.227,274.041 		"/>
		<polygon fill="#B1C800" points="292.717,241.08 297.471,232.841 302.227,241.08 		"/>
		<polygon fill="#F3E400" points="297.476,249.321 302.232,241.08 306.985,249.321 		"/>
		<polygon fill="#DFDB00" points="278.452,265.802 283.208,257.562 287.963,265.802 		"/>
		<polygon fill="#DFDB00" points="273.696,274.042 278.452,265.8 283.206,274.042 		"/>
		<polygon fill="#7AB51D" points="283.208,257.562 287.963,249.321 292.718,257.562 		"/>
		<polygon fill="#009435" points="287.966,249.321 292.722,241.08 297.478,249.321 		"/>
		<polygon fill="#1FA22E" points="297.473,249.321 292.717,257.562 287.961,249.321 		"/>
		<polygon fill="#DFDB00" points="306.986,249.321 302.232,257.562 297.476,249.321 		"/>
		<polygon fill="#7AB51D" points="311.74,257.562 306.985,265.801 302.229,257.562 		"/>
		<polygon fill="#DFDB00" points="302.232,241.08 297.477,249.321 292.721,241.08 		"/>
		<polygon fill="#B1C800" points="292.722,257.562 287.966,265.802 283.21,257.562 		"/>
		<polygon fill="#F3E400" points="287.963,265.8 283.208,274.042 278.452,265.8 		"/>
		<polygon fill="#1FA22E" points="297.473,265.8 292.717,274.042 287.961,265.8 		"/>
		<polygon fill="#009435" points="316.5,265.8 311.744,274.041 306.986,265.8 		"/>
	</g>
</g>
<g id="blue">
	<g>
		<text transform="matrix(1 0 0 1 270.0884 154.9844)" fill="#3E3D40" font-family="'MavenProRegular'" font-size="7.6832">company slogan</text>
	</g>
	<g>
		<text transform="matrix(1 0 0 1 262.1445 145.5664)" fill="#3E3D40" font-family="'MavenProMedium'" font-size="23.7185">anexus</text>
	</g>
	<g>
		<polygon fill="#0076BD" points="302.563,106.069 307.315,97.829 312.074,106.069 		"/>
		<polygon fill="#004494" points="307.315,114.309 312.071,106.07 316.826,114.309 		"/>
		<polygon fill="#004494" points="312.074,122.549 316.829,114.309 321.585,122.549 		"/>
		<polygon fill="#00378B" points="283.535,122.549 288.291,114.309 293.045,122.549 		"/>
		<polygon fill="#005EA8" points="293.047,122.549 297.801,114.309 302.556,122.549 		"/>
		<polygon fill="#0076BD" points="293.047,89.588 297.801,81.349 302.556,89.588 		"/>
		<polygon fill="#009EE0" points="297.805,97.829 302.561,89.588 307.315,97.829 		"/>
		<polygon fill="#008BD0" points="278.782,114.311 283.538,106.07 288.294,114.311 		"/>
		<polygon fill="#008BD0" points="274.026,122.55 278.782,114.308 283.536,122.55 		"/>
		<polygon fill="#005EA8" points="283.538,106.069 288.294,97.829 293.048,106.069 		"/>
		<polygon fill="#00378B" points="288.296,97.829 293.052,89.588 297.808,97.829 		"/>
		<polygon fill="#004494" points="297.803,97.829 293.047,106.069 288.291,97.829 		"/>
		<polygon fill="#008BD0" points="307.315,97.829 302.561,106.069 297.805,97.829 		"/>
		<polygon fill="#005EA8" points="312.071,106.07 307.315,114.309 302.56,106.07 		"/>
		<polygon fill="#008BD0" points="302.563,89.588 297.807,97.829 293.051,89.588 		"/>
		<polygon fill="#0076BD" points="293.052,106.069 288.296,114.311 283.54,106.069 		"/>
		<polygon fill="#009EE0" points="288.294,114.308 283.538,122.55 278.782,114.308 		"/>
		<polygon fill="#004494" points="297.803,114.308 293.047,122.55 288.291,114.308 		"/>
		<polygon fill="#00378B" points="316.829,114.309 312.074,122.549 307.315,114.309 		"/>
	</g>
</g>
</svg>
