<?xml version="1.0" encoding="utf-8"?>
<!-- Generator: Adobe Illustrator 16.0.0, SVG Export Plug-In . SVG Version: 6.00 Build 0)  -->
<!DOCTYPE svg PUBLIC "-//W3C//DTD SVG 1.1//EN" "http://www.w3.org/Graphics/SVG/1.1/DTD/svg11.dtd">
<svg version="1.1" id="Layer_1" xmlns="http://www.w3.org/2000/svg" xmlns:xlink="http://www.w3.org/1999/xlink" x="0px" y="0px"
	 width="50px" height="50px" viewBox="0 0 50 50" enable-background="new 0 0 50 50" xml:space="preserve">
<g id="white">
	<g>
		<polygon fill="#FFFFFF" points="30.599,29.655 39.478,29.655 35.037,20.726 		"/>
		<polygon fill="#FFFFFF" points="40.093,30.901 35.655,39.826 44.53,39.826 		"/>
		<polygon fill="#FFFFFF" points="40.818,49.79 40.713,50 49.591,50 45.152,41.072 		"/>
		<polygon fill="#FFFFFF" points="14.805,41.072 10.368,50 19.243,50 		"/>
		<polygon fill="#FFFFFF" points="20.48,50 29.357,50 24.917,41.07 		"/>
		<polygon fill="#FFFFFF" points="20.479,9.311 29.357,9.311 24.917,0.382 		"/>
		<polygon fill="#FFFFFF" points="34.417,19.483 29.98,10.554 25.542,19.483 		"/>
		<polygon fill="#FFFFFF" points="14.187,39.825 14.187,39.825 9.75,30.901 5.311,39.825 		"/>
		<polygon fill="#FFFFFF" points="0.251,50 9.13,50 4.691,41.068 		"/>
		<polygon fill="#FFFFFF" points="19.244,29.655 14.805,20.727 10.367,29.655 		"/>
		<polygon fill="#FFFFFF" points="24.304,19.483 24.306,19.483 19.867,10.554 15.426,19.483 		"/>
		<polygon fill="#FFFFFF" points="24.302,20.312 15.421,20.312 19.862,29.24 		"/>
		<polygon fill="#FFFFFF" points="34.419,20.312 25.542,20.312 25.54,20.312 29.98,29.24 		"/>
		<polygon fill="#FFFFFF" points="35.035,39.415 39.474,30.487 30.594,30.487 		"/>
		<polygon fill="#FFFFFF" points="20.483,10.14 24.924,19.068 29.364,10.14 		"/>
		<polygon fill="#FFFFFF" points="10.369,30.485 14.809,39.415 19.25,30.485 		"/>
		<polygon fill="#FFFFFF" points="14.189,40.653 5.309,40.653 9.75,49.585 		"/>
		<polygon fill="#FFFFFF" points="15.421,40.653 19.862,49.585 24.302,40.653 		"/>
		<polygon fill="#FFFFFF" points="40.096,49.585 44.535,40.655 35.655,40.655 		"/>
	</g>
</g>
</svg>
